<?xml version="1.0" standalone="no"?>
<!DOCTYPE svg PUBLIC "-//W3C//DTD SVG 20010904//EN"
 "http://www.w3.org/TR/2001/REC-SVG-20010904/DTD/svg10.dtd">
<svg version="1.0" xmlns="http://www.w3.org/2000/svg"
 width="570.000000pt" height="570.000000pt" viewBox="0 0 570.000000 570.000000"
 preserveAspectRatio="xMidYMid meet">
<metadata>
Created by potrace 1.11, written by Peter Selinger 2001-2013
</metadata>
<g transform="translate(0.000000,570.000000) scale(0.100000,-0.100000)"
fill="#000000" stroke="none">
<path d="M2409 5695 c-2 -2 -22 -6 -44 -9 -23 -4 -52 -9 -65 -11 -14 -3 -38
-8 -55 -11 -16 -3 -35 -10 -42 -16 -7 -6 -13 -8 -13 -4 0 7 -115 -35 -190 -71
-169 -79 -377 -263 -479 -423 l-55 -85 -105 -1 c-123 -1 -168 -11 -271 -62
-55 -27 -96 -58 -152 -115 -43 -42 -78 -84 -78 -92 0 -8 -4 -15 -9 -15 -5 0
-12 -11 -15 -24 -3 -14 -15 -28 -26 -31 -11 -3 -20 -11 -20 -16 0 -5 -6 -9
-13 -9 -34 0 -172 -135 -214 -210 -44 -78 -73 -169 -79 -253 -3 -45 -11 -76
-19 -82 -8 -5 -36 -25 -62 -44 -56 -40 -111 -108 -136 -171 -27 -66 -30 -77
-33 -162 -3 -78 4 -115 36 -180 15 -32 16 -40 4 -63 -67 -129 -53 -309 33
-429 33 -46 35 -54 37 -135 2 -58 9 -99 21 -126 10 -22 19 -42 19 -45 5 -18
55 -80 85 -105 l37 -29 0 -146 c0 -80 3 -157 7 -172 4 -15 22 -39 41 -53 61
-47 154 -36 206 24 l25 29 1 -726 c0 -400 3 -745 6 -767 38 -253 264 -450 528
-460 l44 -1 2 -130 c2 -138 7 -164 48 -207 47 -50 77 -56 277 -56 194 0 228 7
278 52 42 39 51 77 51 214 l0 128 673 0 672 0 5 -141 c6 -155 11 -171 77 -221
l36 -28 205 -2 c224 -3 237 0 293 60 36 38 45 82 44 214 l-1 113 36 6 c84 14
211 58 244 85 6 5 31 25 56 45 88 71 160 192 184 306 9 43 12 151 12 346 l-1
282 65 1 c164 2 266 25 420 97 30 14 57 28 60 32 3 4 16 13 29 20 50 26 157
129 207 200 49 69 67 102 93 168 21 52 23 60 40 142 6 26 9 270 8 580 l-2 535
-33 67 c-40 82 -98 139 -180 179 -76 36 -111 40 -369 42 -111 1 -205 5 -209
10 -4 4 -3 7 3 7 15 0 69 86 89 140 22 62 25 187 7 258 -8 31 -18 59 -21 62
-4 3 -16 22 -26 43 -23 44 -75 97 -137 139 -32 21 -44 36 -45 56 -8 154 -62
291 -157 398 -46 51 -154 134 -175 134 -6 0 -24 25 -42 57 -61 108 -180 208
-302 255 -68 25 -95 30 -202 33 l-90 3 -42 61 c-107 152 -264 292 -413 368
-36 19 -70 38 -78 44 -7 6 -13 9 -13 5 0 -4 -17 2 -37 12 -21 10 -58 24 -83
31 -25 7 -54 17 -65 21 -48 19 -170 33 -301 36 -78 2 -143 1 -145 -1z m2709
-2537 c10 -14 10 -965 -1 -1005 -12 -45 -48 -116 -78 -155 -48 -60 -157 -135
-224 -154 -69 -20 -102 -25 -170 -29 -44 -2 -82 0 -85 5 -4 6 -5 1208 -1 1323
l1 27 274 0 c207 0 276 -3 284 -12z"/>
</g>
</svg>
