<svg id="Ebene_1" data-name="Ebene 1" xmlns="http://www.w3.org/2000/svg" viewBox="0 0 524.94 570"><defs><style>.cls-1{fill:#fcf086;}.cls-2{fill:#f9b126;}.cls-3{fill:#fecf72;}</style></defs><path class="cls-1" d="M734,442.94a42.37,42.37,0,0,1-12.35,30H711.13v10a15.33,15.33,0,0,1-1.37,6.28,5,5,0,0,1-.22.47,14.62,14.62,0,0,1-3,4.22,15.6,15.6,0,0,1-26.62-11V438.59a16.83,16.83,0,0,1-16.87-16.85H379.7a16.83,16.83,0,0,1-16.85,16.85v30.59a11.4,11.4,0,0,1-1.59,5.77,12.64,12.64,0,0,1-3,3.61,16.87,16.87,0,0,1-9.48,3.81,13.36,13.36,0,0,1-1.56.08c-6.75,0-12.52-3.69-14.7-8.82V586.86a10.51,10.51,0,0,1-1.43,5.22,11.45,11.45,0,0,1-2.65,3.26,15.09,15.09,0,0,1-9.84,3.53c-7.68,0-13.94-5.39-13.94-12V558.47a37,37,0,0,1-16.55-30.87,36,36,0,0,1,.78-7.61,42.49,42.49,0,0,1-6.08-50.68,42,42,0,0,1-5.72-21.26,42.52,42.52,0,0,1,25.06-38.78c0-1-.08-2-.08-3a59.41,59.41,0,0,1,34.24-53.82,59.32,59.32,0,0,1,53.79-34.22,60.31,60.31,0,0,1,10.57.93,122.43,122.43,0,0,1,212-5.44,57.16,57.16,0,0,1,8.34-.59,59.39,59.39,0,0,1,53.8,34.24,59.37,59.37,0,0,1,34,48.16c.17,1.85.27,3.73.27,5.63,0,1,0,2.05-.08,3.05a5.94,5.94,0,0,1,.57.27A42.52,42.52,0,0,1,734,442.94Z" transform="translate(-277.11 -255.17)"/><path class="cls-1" d="M721.68,472.91a42.38,42.38,0,0,1-10.55,7.75v-7.75Z" transform="translate(-277.11 -255.17)"/><path class="cls-2" d="M413.33,698.53c-18.79-1.72-42.56-3.53-46.26,11.55-3.39,13.88,25,44.65,46.26,44.65a28.11,28.11,0,0,0,28.1-28.1C441.43,711.12,428.78,700,413.33,698.53Zm266.29,11.55C676,695,652.15,696.81,633.38,698.53c-15.45,1.42-28.09,12.59-28.09,28.1a28.09,28.09,0,0,0,28.09,28.1C654.63,754.73,683,724,679.62,710.08Zm-24-223.71h-269A29.68,29.68,0,0,0,357,516V639.69a29.66,29.66,0,0,0,29.67,29.67h269a29.67,29.67,0,0,0,29.67-29.67V516A29.69,29.69,0,0,0,655.65,486.37Zm55.48-13.46v7.75a42.38,42.38,0,0,0,10.55-7.75Z" transform="translate(-277.11 -255.17)"/><path class="cls-2" d="M762.46,472.91H721.68a42.38,42.38,0,0,1-10.55,7.75V483a15.33,15.33,0,0,1-1.37,6.28,5,5,0,0,1-.22.47,14.62,14.62,0,0,1-3,4.22,15.6,15.6,0,0,1-26.62-11V438.59a16.83,16.83,0,0,1-16.87-16.85H379.7a16.83,16.83,0,0,1-16.85,16.85v30.59a11.4,11.4,0,0,1-1.59,5.77,12.64,12.64,0,0,1-3,3.61,16.87,16.87,0,0,1-9.48,3.81,13.36,13.36,0,0,1-1.56.08c-6.75,0-12.52-3.69-14.7-8.82v257a55.06,55.06,0,0,0,55.07,55.08h3v21.89a17.54,17.54,0,0,0,17.54,17.53h30.51a17.53,17.53,0,0,0,17.53-17.53V785.75H591v21.89a17.51,17.51,0,0,0,17.51,17.53H639a17.53,17.53,0,0,0,17.53-17.53V785.69a55,55,0,0,0,53.21-55V679.18H717c46.87,0,85-35,85-78v-91C802.06,489.63,784.29,472.91,762.46,472.91ZM413.33,754.73c-21.24,0-49.65-30.77-46.26-44.65,3.7-15.08,27.47-13.27,46.26-11.55,15.45,1.42,28.1,12.59,28.1,28.1A28.11,28.11,0,0,1,413.33,754.73Zm220.05,0a28.09,28.09,0,0,1-28.09-28.1c0-15.51,12.64-26.68,28.09-28.1,18.77-1.72,42.57-3.53,46.24,11.55C683,724,654.63,754.73,633.38,754.73Zm51.94-115a29.67,29.67,0,0,1-29.67,29.67h-269A29.66,29.66,0,0,1,357,639.69V516a29.68,29.68,0,0,1,29.67-29.67h269A29.69,29.69,0,0,1,685.32,516Zm81.4-38.5c0,23.52-22.29,42.65-49.68,42.65h-7.28V508.25h52.7c2.82,0,4.26,1.63,4.26,1.94Z" transform="translate(-277.11 -255.17)"/><path class="cls-3" d="M633.38,754.73a28.09,28.09,0,0,1-28.09-28.1c0-15.51,12.64-26.68,28.09-28.1,18.77-1.72,42.57-3.53,46.24,11.55C683,724,654.63,754.73,633.38,754.73Z" transform="translate(-277.11 -255.17)"/><path class="cls-3" d="M441.43,726.63a28.11,28.11,0,0,1-28.1,28.1c-21.24,0-49.65-30.77-46.26-44.65,3.7-15.08,27.47-13.27,46.26-11.55C428.78,700,441.43,711.12,441.43,726.63Z" transform="translate(-277.11 -255.17)"/><path class="cls-3" d="M685.32,516V639.69a29.67,29.67,0,0,1-29.67,29.67h-269A29.66,29.66,0,0,1,357,639.69V516a29.68,29.68,0,0,1,29.67-29.67h269A29.69,29.69,0,0,1,685.32,516Z" transform="translate(-277.11 -255.17)"/><path class="cls-1" d="M709.76,401.66a18.46,18.46,0,0,1-.2,2.8,5.94,5.94,0,0,0-.57-.27c.06-1,.08-2,.08-3.05,0-1.9-.1-3.78-.27-5.63A19.89,19.89,0,0,1,709.76,401.66Z" transform="translate(-277.11 -255.17)"/></svg>